 
http://www.imdb.com/title/tt2381962/


Plot: Twins discover a coven of witches. The brother is recruited to join while the sister uncovers their heritage as witch slayers. When the brother is supposed to sacrifice his sister they instead team up to destroy the Witch of the Woods. 



Director:
 David DeCoteau 

Writer:
 Larson Tretter 

Stars:
 Fivel Stewart, Booboo Stewart, Eric Roberts

Genres:
  Action |  Adventure |  Horror |  Thriller 

Country:
 USA 

Language:
 English 

 
http://www.shotpix.com/images/29783420037214742916.png




Format                                   : AVI
Format/Info                              : Audio Video Interleave
Format profile                           : OpenDML
Format settings                          : rec
File size                                : 1.15 GiB
Duration                                 : 1h 23mn
Overall bit rate                         : 1 979 Kbps
Writing application                      : AVI-Mux GUI 1.17.8.3, Feb 16 201019:42:50

Video
ID                                       : 0
Format                                   : MPEG-4 Visual
Format profile                           : Advanced Simple@L5
Format settings, BVOP                    : 2
Format settings, QPel                    : No
Format settings, GMC                     : No warppoints
Format settings, Matrix                  : Default (H.263)
Muxing mode                              : Packed bitstream
Codec ID                                 : XVID
Codec ID/Hint                            : XviD
Duration                                 : 1h 23mn
Bit rate                                 : 1 526 Kbps
Width                                    : 720 pixels
Height                                   : 400 pixels
Display aspect ratio                     : 16:9
Frame rate                               : 23.976 fps
Color space                              : YUV
Chroma subsampling                       : 4:2:0
Bit depth                                : 8 bits
Scan type                                : Progressive
Compression mode                         : Lossy
Bits/(Pixel*Frame)                       : 0.221
Stream size                              : 909 MiB (77%)
Writing library                          : XviD 64

Audio
ID                                       : 1
Format                                   : AC-3
Format/Info                              : Audio Coding 3
Mode extension                           : CM (complete main)
Format settings, Endianness              : Big
Codec ID                                 : 2000
Duration                                 : 1h 23mn
Bit rate mode                            : Constant
Bit rate                                 : 448 Kbps
Channel(s)                               : 6 channels
Channel positions                        : Front: L C R, Side: L R, LFE
Sampling rate                            : 48.0 KHz
Bit depth                                : 16 bits
Compression mode                         : Lossy
Stream size                              : 267 MiB (23%)
Alignment                                : Aligned on interleaves
Interleave, duration                     : 64 ms (1.53 video frames)
Interleave, preload duration             : 192 ms
Title                                    : T3_Audio - 




    	http://www.shotpix.com/images/32475553047113969335.png
    	http://www.shotpix.com/images/64630659867985465842.png
    	http://www.shotpix.com/images/01389597864681688890.png
    	http://www.shotpix.com/images/16189215093273992742.png
    	http://www.shotpix.com/images/64004620225065821949.png